<svg xmlns="http://www.w3.org/2000/svg" class="av" viewBox="0 0 324 808" width="324" height="808" role="img" aria-label="Document tree at $.entity.planet: 39 keys to depth 2">
<style>.av{font-family:ui-monospace,Menlo,Consolas,monospace;font-size:13px}.av-t{fill:var(--av-ink,#1f2328)}.av-m{fill:var(--av-muted,#6e7781)}.av-box{fill:var(--av-bg,#f6f8fa);stroke:var(--av-rule,#8c959f);stroke-width:1}.av-cell{fill:var(--av-bg,#f6f8fa);stroke:var(--av-rule-faint,#d0d7de);stroke-width:1}.av-direct{fill:var(--av-ink,#1f2328);stroke:var(--av-rule-faint,#d0d7de);stroke-width:1}.av-closure{fill:var(--av-closure,#9ec5fe);stroke:var(--av-rule-faint,#d0d7de);stroke-width:1}.av-unmirrored{fill:var(--av-warn,#e3b341);stroke:var(--av-rule-faint,#d0d7de);stroke-width:1}.av-line{stroke:var(--av-rule,#8c959f);stroke-width:1;fill:none}.av-up{stroke:var(--av-alert,#d1242f);stroke-width:1.5;fill:none;stroke-dasharray:4 3}.av-dot{fill:var(--av-ink,#1f2328)}.av-hole{fill:var(--av-bg,#f6f8fa);stroke:var(--av-rule-faint,#d0d7de);stroke-width:1}.av-bar{fill:var(--av-bar,#57606a)}</style>
<text x="4" y="14" class="av-t">$.entity.planet</text>
<path d="M8 20V30H26" class="av-line"/>
<text x="28" y="34" class="av-t">action</text>
<path d="M32 40V50H50" class="av-line"/>
<text x="52" y="54"><tspan class="av-t">0</tspan><tspan class="av-m"> (11)</tspan></text>
<path d="M32 40V70H50" class="av-line"/>
<text x="52" y="74"><tspan class="av-t">1</tspan><tspan class="av-m"> (11)</tspan></text>
<path d="M8 20V90H26" class="av-line"/>
<text x="28" y="94"><tspan class="av-t">api_collection</tspan><tspan class="av-m"> &quot;/api/planet&quot;</tspan></text>
<path d="M8 20V110H26" class="av-line"/>
<text x="28" y="114"><tspan class="av-t">api_item</tspan><tspan class="av-m"> &quot;/api/planet/:planet_id&quot;</tspan></text>
<path d="M8 20V130H26" class="av-line"/>
<text x="28" y="134" class="av-t">children</text>
<path d="M32 140V150H50" class="av-line"/>
<text x="52" y="154"><tspan class="av-t">0</tspan><tspan class="av-m"> (4)</tspan></text>
<path d="M8 20V170H26" class="av-line"/>
<text x="28" y="174"><tspan class="av-t">class</tspan><tspan class="av-m"> &quot;Planet&quot;</tspan></text>
<path d="M8 20V190H26" class="av-line"/>
<text x="28" y="194"><tspan class="av-t">controller</tspan><tspan class="av-m"> &quot;planets&quot;</tspan></text>
<path d="M8 20V210H26" class="av-line"/>
<text x="28" y="214"><tspan class="av-t">controller_class</tspan><tspan class="av-m"> &quot;PlanetsController&quot;</tspan></text>
<path d="M8 20V230H26" class="av-line"/>
<text x="28" y="234" class="av-t">field</text>
<path d="M32 240V250H50" class="av-line"/>
<text x="52" y="254"><tspan class="av-t">0</tspan><tspan class="av-m"> (7)</tspan></text>
<path d="M32 240V270H50" class="av-line"/>
<text x="52" y="274"><tspan class="av-t">1</tspan><tspan class="av-m"> (7)</tspan></text>
<path d="M32 240V290H50" class="av-line"/>
<text x="52" y="294"><tspan class="av-t">2</tspan><tspan class="av-m"> (7)</tspan></text>
<path d="M32 240V310H50" class="av-line"/>
<text x="52" y="314"><tspan class="av-t">3</tspan><tspan class="av-m"> (7)</tspan></text>
<path d="M32 240V330H50" class="av-line"/>
<text x="52" y="334"><tspan class="av-t">4</tspan><tspan class="av-m"> (6)</tspan></text>
<path d="M32 240V350H50" class="av-line"/>
<text x="52" y="354"><tspan class="av-t">5</tspan><tspan class="av-m"> (6)</tspan></text>
<path d="M32 240V370H50" class="av-line"/>
<text x="52" y="374"><tspan class="av-t">6</tspan><tspan class="av-m"> (6)</tspan></text>
<path d="M8 20V390H26" class="av-line"/>
<text x="28" y="394"><tspan class="av-t">id</tspan><tspan class="av-m"> &quot;planet&quot;</tspan></text>
<path d="M8 20V410H26" class="av-line"/>
<text x="28" y="414"><tspan class="av-t">index</tspan><tspan class="av-m"> []</tspan></text>
<path d="M8 20V430H26" class="av-line"/>
<text x="28" y="434"><tspan class="av-t">label</tspan><tspan class="av-m"> &quot;name&quot;</tspan></text>
<path d="M8 20V450H26" class="av-line"/>
<text x="28" y="454"><tspan class="av-t">param</tspan><tspan class="av-m"> &quot;planet_id&quot;</tspan></text>
<path d="M8 20V470H26" class="av-line"/>
<text x="28" y="474"><tspan class="av-t">plural</tspan><tspan class="av-m"> &quot;Planets&quot;</tspan></text>
<path d="M8 20V490H26" class="av-line"/>
<text x="28" y="494"><tspan class="av-t">root</tspan><tspan class="av-m"> true</tspan></text>
<path d="M8 20V510H26" class="av-line"/>
<text x="28" y="514" class="av-t">rows</text>
<path d="M32 520V530H50" class="av-line"/>
<text x="52" y="534"><tspan class="av-t">0</tspan><tspan class="av-m"> (5)</tspan></text>
<path d="M32 520V550H50" class="av-line"/>
<text x="52" y="554"><tspan class="av-t">1</tspan><tspan class="av-m"> (5)</tspan></text>
<path d="M32 520V570H50" class="av-line"/>
<text x="52" y="574"><tspan class="av-t">2</tspan><tspan class="av-m"> (5)</tspan></text>
<path d="M32 520V590H50" class="av-line"/>
<text x="52" y="594"><tspan class="av-t">3</tspan><tspan class="av-m"> (5)</tspan></text>
<path d="M32 520V610H50" class="av-line"/>
<text x="52" y="614"><tspan class="av-t">4</tspan><tspan class="av-m"> (5)</tspan></text>
<path d="M32 520V630H50" class="av-line"/>
<text x="52" y="634"><tspan class="av-t">5</tspan><tspan class="av-m"> (5)</tspan></text>
<path d="M32 520V650H50" class="av-line"/>
<text x="52" y="654"><tspan class="av-t">6</tspan><tspan class="av-m"> (5)</tspan></text>
<path d="M32 520V670H50" class="av-line"/>
<text x="52" y="674"><tspan class="av-t">7</tspan><tspan class="av-m"> (5)</tspan></text>
<path d="M8 20V690H26" class="av-line"/>
<text x="28" y="694"><tspan class="av-t">table</tspan><tspan class="av-m"> &quot;planets&quot;</tspan></text>
<path d="M8 20V710H26" class="av-line"/>
<text x="28" y="714"><tspan class="av-t">title</tspan><tspan class="av-m"> &quot;Planet&quot;</tspan></text>
<path d="M8 20V730H26" class="av-line"/>
<text x="28" y="734"><tspan class="av-t">ui_collection</tspan><tspan class="av-m"> &quot;/planets&quot;</tspan></text>
<path d="M8 20V750H26" class="av-line"/>
<text x="28" y="754"><tspan class="av-t">ui_collection_helper</tspan><tspan class="av-m"> &quot;planets&quot;</tspan></text>
<path d="M8 20V770H26" class="av-line"/>
<text x="28" y="774"><tspan class="av-t">ui_item</tspan><tspan class="av-m"> &quot;/planets/:planet_id&quot;</tspan></text>
<path d="M8 20V790H26" class="av-line"/>
<text x="28" y="794"><tspan class="av-t">ui_item_helper</tspan><tspan class="av-m"> &quot;planet&quot;</tspan></text>
</svg>
