<svg xmlns="http://www.w3.org/2000/svg" class="av" viewBox="0 0 268 408" width="268" height="408" role="img" aria-label="Document tree at $: 19 keys to depth 2">
<style>.av{font-family:ui-monospace,Menlo,Consolas,monospace;font-size:13px}.av-t{fill:var(--av-ink,#1f2328)}.av-m{fill:var(--av-muted,#6e7781)}.av-box{fill:var(--av-bg,#f6f8fa);stroke:var(--av-rule,#8c959f);stroke-width:1}.av-cell{fill:var(--av-bg,#f6f8fa);stroke:var(--av-rule-faint,#d0d7de);stroke-width:1}.av-direct{fill:var(--av-ink,#1f2328);stroke:var(--av-rule-faint,#d0d7de);stroke-width:1}.av-closure{fill:var(--av-closure,#9ec5fe);stroke:var(--av-rule-faint,#d0d7de);stroke-width:1}.av-unmirrored{fill:var(--av-warn,#e3b341);stroke:var(--av-rule-faint,#d0d7de);stroke-width:1}.av-line{stroke:var(--av-rule,#8c959f);stroke-width:1;fill:none}.av-up{stroke:var(--av-alert,#d1242f);stroke-width:1.5;fill:none;stroke-dasharray:4 3}.av-dot{fill:var(--av-ink,#1f2328)}.av-hole{fill:var(--av-bg,#f6f8fa);stroke:var(--av-rule-faint,#d0d7de);stroke-width:1}.av-bar{fill:var(--av-bar,#57606a)}</style>
<text x="4" y="14" class="av-t">$</text>
<path d="M8 20V30H26" class="av-line"/>
<text x="28" y="34" class="av-t">Service</text>
<path d="M32 40V50H50" class="av-line"/>
<text x="52" y="54"><tspan class="av-t">description</tspan><tspan class="av-m"> string</tspan></text>
<path d="M32 40V70H50" class="av-line"/>
<text x="52" y="74"><tspan class="av-t">owner</tspan><tspan class="av-m"> string</tspan></text>
<path d="M32 40V90H50" class="av-line"/>
<text x="52" y="94"><tspan class="av-t">replicas</tspan><tspan class="av-m"> integer&amp;min(1)</tspan></text>
<path d="M32 40V110H50" class="av-line"/>
<text x="52" y="114"><tspan class="av-t">tier</tspan><tspan class="av-m"> &quot;critical&quot;|&quot;standard&quot;</tspan></text>
<path d="M8 20V130H26" class="av-line"/>
<text x="28" y="134" class="av-t">deploy</text>
<path d="M32 140V150H50" class="av-line"/>
<text x="52" y="154"><tspan class="av-t">eu1</tspan><tspan class="av-m"> (3)</tspan></text>
<path d="M32 140V170H50" class="av-line"/>
<text x="52" y="174"><tspan class="av-t">us1</tspan><tspan class="av-m"> (3)</tspan></text>
<path d="M8 20V190H26" class="av-line"/>
<text x="28" y="194" class="av-t">features</text>
<path d="M32 200V210H50" class="av-line"/>
<text x="52" y="214"><tspan class="av-t">checkout_v2</tspan><tspan class="av-m"> false</tspan></text>
<path d="M32 200V230H50" class="av-line"/>
<text x="52" y="234"><tspan class="av-t">dark_mode</tspan><tspan class="av-m"> true</tspan></text>
<path d="M32 200V250H50" class="av-line"/>
<text x="52" y="254"><tspan class="av-t">new_search</tspan><tspan class="av-m"> false</tspan></text>
<path d="M8 20V270H26" class="av-line"/>
<text x="28" y="274" class="av-t">services</text>
<path d="M32 280V290H50" class="av-line"/>
<text x="52" y="294"><tspan class="av-t">auth</tspan><tspan class="av-m"> (4)</tspan></text>
<path d="M32 280V310H50" class="av-line"/>
<text x="52" y="314"><tspan class="av-t">billing</tspan><tspan class="av-m"> (4)</tspan></text>
<path d="M32 280V330H50" class="av-line"/>
<text x="52" y="334"><tspan class="av-t">search</tspan><tspan class="av-m"> (4)</tspan></text>
<path d="M8 20V350H26" class="av-line"/>
<text x="28" y="354" class="av-t">tests</text>
<path d="M32 360V370H50" class="av-line"/>
<text x="52" y="374"><tspan class="av-t">regression</tspan><tspan class="av-m"> (2)</tspan></text>
<path d="M32 360V390H50" class="av-line"/>
<text x="52" y="394"><tspan class="av-t">smoke</tspan><tspan class="av-m"> (2)</tspan></text>
</svg>
